<svg xmlns="http://www.w3.org/2000/svg" width="79.252" height="17.529" viewBox="0 0 79.252 17.529">
  <defs>
    <style>
      .cls-1 {
        fill: #ff007a;
        fill-rule: evenodd;
      }
    </style>
  </defs>
  <path id="Uniswap_Lockup_Large_Black-1" class="cls-1" d="M.346.389c1.98,2.427,4.153,5.476,4.5,5.969l.04.057c.187.262.342.456.46.6h0c.261.328.338.425.183.515a.751.751,0,0,1-.384.1.654.654,0,0,1-.431-.186c-.085-.081-.665-.932-1.454-2.17-.6-.947-1.11-1.733-1.124-1.746C2.109,3.5,2.109,3.5,3.2,5.474,3.889,6.715,4.359,7.632,4.359,7.69c0,.119-.032.182-.178.346a2.014,2.014,0,0,0-.43,1.218,3.832,3.832,0,0,1-1.02,2.08,4.12,4.12,0,0,0-.568.8,1.49,1.49,0,0,0-.177.724,2.273,2.273,0,0,0,.118.891,3.2,3.2,0,0,0,.427.854,1.99,1.99,0,0,1,.329.664c0,.076.014.076.338,0A3.493,3.493,0,0,0,4.954,14.4a.824.824,0,0,0,.272-.688.677.677,0,0,0-.063-.377,1.647,1.647,0,0,0-.628-.617,1.434,1.434,0,0,1-.747-.972,1.7,1.7,0,0,1,.275-1.083,3.3,3.3,0,0,0,.392-1.427c.03-.382.071-.532.18-.653a.673.673,0,0,1,.5-.207,1.675,1.675,0,0,0,.987-.4.869.869,0,0,0,.308-.659l.01-.212-.116-.136C5.9,6.472.065,0,.039,0,.034,0,.172.175.346.389ZM3.1,13.247a.378.378,0,0,0-.114-.495c-.15-.1-.383-.053-.383.078,0,.04.022.069.071.095.083.043.089.092.024.191s-.061.189.015.249A.26.26,0,0,0,3.1,13.247ZM5.952,3.989c-.187-.029-.2-.033-.107-.046a2.88,2.88,0,0,1,.842.076A3.635,3.635,0,0,1,8.536,5.268l.166.186.237-.038a4.951,4.951,0,0,1,2.861.363,3.693,3.693,0,0,1,.648.382,1.022,1.022,0,0,1,.06.254,1.6,1.6,0,0,1-.1.987.261.261,0,0,0-.027.286.273.273,0,0,0,.245.156c.211,0,.438-.345.543-.824l.042-.19.083.095a3.692,3.692,0,0,1,.872,1.733l.016.132-.076-.12a1.469,1.469,0,0,0-.432-.459,2.71,2.71,0,0,0-1.48-.318,5.962,5.962,0,0,1-1.639-.25C9.821,7.4,9.451,7.077,8.576,5.918A8.419,8.419,0,0,0,7.71,4.89,3.087,3.087,0,0,0,5.952,3.989Zm6.669,1.149a2.113,2.113,0,0,1,.159-.78.848.848,0,0,1,.077-.149.513.513,0,0,1-.036.135,1.789,1.789,0,0,0-.032.8c.059.407.093.466.519.905.2.206.432.466.516.578l.153.2-.153-.145a6.539,6.539,0,0,0-.713-.573c-.064-.033-.073-.033-.113.007s-.044.091-.049.35a1.973,1.973,0,0,1-.194.921c-.071.14-.082.11-.018-.048a1.271,1.271,0,0,0,.053-.561c0-.785-.093-.974-.634-1.3-.137-.082-.363-.2-.5-.262a1.9,1.9,0,0,1-.245-.121,5.186,5.186,0,0,1,.755.223c.316.123.368.139.406.124S12.609,5.36,12.622,5.138Zm-6.87-.6a3.22,3.22,0,0,0,.564,1.945A1.8,1.8,0,0,0,7.4,7.24c.221.02.287-.05.187-.2a3.731,3.731,0,0,1-.354-.655c-.028-.084-.089-.331-.135-.55C6.944,5.091,6.788,4.8,6.428,4.58a2.158,2.158,0,0,0-.574-.216l-.087-.016Zm6.409,5.88c-1.777-.723-2.4-1.35-2.4-2.408a1.725,1.725,0,0,1,.012-.283,1.343,1.343,0,0,1,.153.114,3.562,3.562,0,0,0,1.881.581,7.712,7.712,0,0,1,1.368.289,2.627,2.627,0,0,1,1.915,2.1,3.507,3.507,0,0,1-.056,1.127,2.18,2.18,0,0,1-.289.654c-.013,0-.026-.047-.03-.118a1.459,1.459,0,0,0-.524-1.019A7.156,7.156,0,0,0,12.161,10.415Zm-1.333-.08a3.2,3.2,0,0,1,.086.38A1.55,1.55,0,0,1,9.746,12.53c-.092.028-.452.1-.8.158a4.6,4.6,0,0,0-1.339.357,2.1,2.1,0,0,0-.481.289.316.316,0,0,0,.114-.027,5.232,5.232,0,0,1,1.52-.251c.268-.014.573-.036.678-.05a2.127,2.127,0,0,0,1.344-.595,1.542,1.542,0,0,0,.375-.6,1.135,1.135,0,0,0,.063-.486,1.152,1.152,0,0,0-.066-.5,1.534,1.534,0,0,0-.287-.526l-.084-.1Zm.9,1.841a2.1,2.1,0,0,1-.161-1.469c.014-.049.036-.09.05-.09a.479.479,0,0,1,.124.068c.109.074.327.2.908.519a4.5,4.5,0,0,1,1.42,1.062,2.32,2.32,0,0,1,.472,1.092,3.751,3.751,0,0,1-.045,1.074A2.664,2.664,0,0,1,13.2,16.166a1.663,1.663,0,0,1-.189.095.716.716,0,0,1,.077-.2,1.788,1.788,0,0,0,.078-1.4,5.982,5.982,0,0,0-.72-1.3A8.813,8.813,0,0,1,11.728,12.176ZM7.281,13.857a4.79,4.79,0,0,0-2.227,1.084l-.2.167.172.027a2.4,2.4,0,0,1,1.767.918,1.412,1.412,0,0,0,.779.534A.838.838,0,0,0,8.594,16.1a.908.908,0,0,0-.019-.615.643.643,0,0,0-.96-.206.334.334,0,0,0,.113.589c.06.013.059.01-.015-.024a.244.244,0,0,1-.166-.242.39.39,0,0,1,.594-.294.429.429,0,0,1,.294.44.546.546,0,0,1-.616.551.9.9,0,0,1-.51-.269.687.687,0,0,1,.23-1.063,1.076,1.076,0,0,1,1.044.1c.368.243.524.466.841,1.2a5.409,5.409,0,0,0,.295.595,1.288,1.288,0,0,0,1.093.676,1.312,1.312,0,0,0,.645-.158,1.405,1.405,0,0,0,.389-.263.617.617,0,0,0-.155.049,1.335,1.335,0,0,1-1.233-.033,1.22,1.22,0,0,1-.391-.713c-.013-.056-.054-.3-.093-.55a2.649,2.649,0,0,0-.408-1.228,1.982,1.982,0,0,0-1.128-.73A3.438,3.438,0,0,0,7.281,13.857ZM6.235,9.027a.811.811,0,0,1,.487-.537.947.947,0,0,1,.551.053.706.706,0,0,1,.4.649c-.049.264-.474.476-.962.479-.249,0-.342-.032-.437-.161A.772.772,0,0,1,6.235,9.027Zm.973-.39a.2.2,0,0,1,.086.3.474.474,0,0,1-.33.145c-.176,0-.369-.126-.369-.242C6.595,8.611,6.964,8.487,7.207,8.637Zm38.28.666a2.091,2.091,0,0,1,1.661-2.778,9.649,9.649,0,0,1,2.535.064c.115.044.164.212.166.556a3.781,3.781,0,0,0,.066.733c.054.2.022.239-.188.235-.19,0-.305-.115-.466-.452-.257-.539-.567-.71-1.292-.713-.925,0-1.6.62-1.491,1.372.072.489.561.971,1.658,1.633a5.093,5.093,0,0,1,1.9,1.612A2.3,2.3,0,0,1,48.68,14.8a4.361,4.361,0,0,1-2.862.082l-.56-.19v-.9c0-.811.019-.9.2-.9.155,0,.221.1.276.422a1.5,1.5,0,0,0,1.6,1.279,1.618,1.618,0,0,0,1.66-1.3.986.986,0,0,0-.111-.881c-.229-.471-.623-.784-1.961-1.556A3,3,0,0,1,45.488,9.3ZM19.254,7.055C19.071,7.055,19,7,19,6.842c0-.2.071-.213,1.5-.213,1.328,0,1.5.02,1.468.172-.019.095-.2.226-.408.292l-.374.12-.032,2.712a19.468,19.468,0,0,0,.09,3.138,1.917,1.917,0,0,0,2.024,1.33,2.131,2.131,0,0,0,1.683-.674c.573-.542.664-1.057.663-3.733,0-2.64-.048-2.858-.615-2.912-.258-.025-.344-.085-.344-.239,0-.192.085-.206,1.281-.206s1.281.012,1.281.213a.188.188,0,0,1-.187.214c-.494,0-.5.051-.57,2.946-.069,3.006-.133,3.362-.743,4.1a3.342,3.342,0,0,1-.931.685,2.872,2.872,0,0,1-1.679.3,3.257,3.257,0,0,1-1.6-.245A2.731,2.731,0,0,1,20.137,13.6c-.215-.4-.234-.613-.284-3.308C19.8,7.2,19.769,7.055,19.254,7.055Zm9.988,0c-.244,0-.315-.048-.315-.213,0-.2.068-.212,1.094-.2l1.094.009.523.6c.288.332,1.226,1.369,2.084,2.3s1.845,2.025,2.191,2.42a4.136,4.136,0,0,0,.724.718A16.829,16.829,0,0,0,36.7,10.13l-.034-2.562-.3-.257a1.072,1.072,0,0,0-.56-.257c-.191,0-.261-.058-.261-.216,0-.208.054-.215,1.468-.186,1.2.024,1.468.058,1.468.185,0,.091-.149.185-.357.228a1.2,1.2,0,0,0-.48.2,22.678,22.678,0,0,0-.154,3.894l-.031,3.771h-.309c-.266,0-.583-.3-2.278-2.154-1.083-1.185-2.347-2.593-2.809-3.129a9.039,9.039,0,0,0-.92-.984,36.708,36.708,0,0,0,.033,5.231c.1.354.167.415.587.527.338.09.475.181.475.317,0,.174-.129.191-1.494.191-1.39,0-1.494-.014-1.494-.2,0-.136.1-.219.315-.262.652-.13.7-.336.732-3.487a24.551,24.551,0,0,0-.079-3.258A.867.867,0,0,0,29.242,7.055Zm11.192,0c-.229,0-.3-.051-.3-.213,0-.2.071-.213,1.6-.213s1.6.009,1.6.213c0,.156-.071.213-.267.213a.805.805,0,0,0-.485.217c-.211.211-.217.315-.187,3.572.029,3.179.042,3.363.238,3.506a.907.907,0,0,0,.454.151c.175,0,.247.061.247.213,0,.2-.071.213-1.6.213-1.493,0-1.6-.013-1.6-.2,0-.15.1-.216.423-.267.632-.1.664-.307.625-3.984-.031-2.945-.045-3.128-.241-3.271A1.008,1.008,0,0,0,40.434,7.055Zm11.168,0a.284.284,0,0,1-.292-.213c-.054-.206,0-.213,1.535-.213,1.52,0,1.591.009,1.591.213,0,.163-.071.213-.307.213-.672,0-.657.122.36,2.9.518,1.416,1.02,2.761,1.117,2.989l.176.415.815-2.169c.96-2.554,1.084-3.026.921-3.492a1.1,1.1,0,0,0-.889-.645c-.094,0-.165-.091-.165-.213,0-.2.071-.213,1.654-.213s1.654.009,1.654.213c0,.151-.071.213-.246.213-.449,0-.647.238-.582.7a58.169,58.169,0,0,0,1.979,5.526c.125-.125,2.158-5.643,2.158-5.858,0-.258-.181-.37-.6-.37-.187,0-.258-.059-.258-.213,0-.2.071-.213,1.281-.213,1.086,0,1.281.025,1.281.165,0,.091-.133.211-.3.268-.366.127-.458.272-.917,1.447l-1.4,3.589c-.569,1.458-1.06,2.714-1.09,2.792s-.206.141-.392.141h-.338l-.767-1.994c-.422-1.1-.92-2.4-1.107-2.888-.321-.842-.348-.879-.468-.638-.07.14-.577,1.442-1.126,2.893l-1,2.638-.372-.032-.372-.032-1.42-3.714A40,40,0,0,0,52.071,7.3.792.792,0,0,0,51.6,7.055ZM72.944,7.1a.812.812,0,0,1-.018-.186.138.138,0,0,1,.018-.08c.022-.028.03-.029.108-.036h0c.288-.027.866-.074,1.349-.095l.147-.007h0c.531-.024,1.481-.056,2.135-.024a2.472,2.472,0,0,1,2.448,1.669,2.99,2.99,0,0,1-.271,2.539,2.5,2.5,0,0,1-2.268,1.08,2.181,2.181,0,0,1-1.415-.349c-.043-.03-.084-.059-.129-.084V12.8a6.092,6.092,0,0,0,.085,1.444c.091.208.3.337.7.435a.759.759,0,0,1,.228.088.3.3,0,0,1,.019.288.13.13,0,0,1-.11.038L74.2,15.082l-1.068,0s-.112.021-.154-.024a.23.23,0,0,1-.038-.139A.271.271,0,0,1,73,14.769a.878.878,0,0,1,.231-.1c.412-.116.591-.238.684-.468a18.114,18.114,0,0,0,.075-3.342,22.233,22.233,0,0,0-.066-3.307c-.09-.212-.317-.268-.64-.348h0l-.2-.052S72.962,7.14,72.944,7.1ZM78.1,9.276a2.064,2.064,0,0,1-.473,1.56,2.526,2.526,0,0,1-2,.436,1.294,1.294,0,0,1-.395-.143l-.009,0-.159-.084L75.053,9.5c-.006-.963,0-1.59.027-1.68.021-.508.769-.571,1.135-.552A1.874,1.874,0,0,1,78.1,9.276ZM68.029,6.689l-.192.073-.418.216-.3.751c-.165.413-.468,1.172-.673,1.686-.372.936-.618,1.551-.877,2.193-.076.189-.306.764-.511,1.278s-.41,1-.455,1.087l-.024.045c-.115.215-.314.589-.665.646a.567.567,0,0,0-.265.09.171.171,0,0,0-.065.129v.089a.1.1,0,0,0,.047.065.249.249,0,0,0,.1.023l1.285-.015H66.34s.094.011.13-.019a.15.15,0,0,0,.046-.075v-.094a.27.27,0,0,0-.071-.141.879.879,0,0,0-.25-.067.631.631,0,0,1-.558-.834c.032-.178.246-.835.487-1.5l.083-.229,1.392-.011c.766-.006,1.427,0,1.469.009.06.015.145.187.393.8.376.927.406,1.04.323,1.213l-.016.035a.77.77,0,0,1-.613.527s-.2.007-.253.068a.178.178,0,0,0-.04.131v.093a.175.175,0,0,0,.04.076.106.106,0,0,0,.07.016l1.264-.009h1.776s.07.007.089-.019a.145.145,0,0,0,.023-.058v-.123a.208.208,0,0,0-.042-.1.977.977,0,0,0-.265-.074.828.828,0,0,1-.55-.471c-.028-.046-.053-.088-.078-.122a6.121,6.121,0,0,1-.373-.81l-.709-1.824-.771-1.983L68.6,7.54l-.1-.265h0c-.156-.4-.218-.563-.236-.585C68.2,6.618,68.029,6.689,68.029,6.689Zm-.083,2.443c-.056-.136-.155-.381-.219-.543-.117-.3-.162-.364-.2-.3-.011.018-.084.22-.164.449-.515,1.483-.748,2.15-.8,2.276a.957.957,0,0,0-.053.181,7.112,7.112,0,0,0,1.137.037c.625,0,1.137-.008,1.137-.017s-.056-.151-.124-.315-.235-.572-.371-.908S68,9.268,67.947,9.132Z" transform="translate(-0.039)"/>
</svg>
