<svg xmlns="http://www.w3.org/2000/svg" width="1418" height="618" viewBox="0 0 1418 618">
  <defs>
    <clipPath id="clip-path">
      <path id="Path_9353-2" d="M0-61.271h1400v600L0 453.322z" class="cls-1" transform="translate(2456 -16846.73)"/>
    </clipPath>
    <clipPath id="clip-path-2">
      <path id="Rectangle_6888" d="M0 0H1400V400H0z" class="cls-1" transform="translate(-7248 -4521)"/>
    </clipPath>
    <linearGradient id="linear-gradient" x1="1" x2="0" y2="1" gradientUnits="objectBoundingBox">
      <stop offset="0" stop-color="#b6509e"/>
      <stop offset="1" stop-color="#2ebac6"/>
    </linearGradient>
    <filter id="Path_9353" width="1418" height="618" x="0" y="0" filterUnits="userSpaceOnUse">
      <feOffset dy="3"/>
      <feGaussianBlur result="blur" stdDeviation="3"/>
      <feFlood flood-opacity=".161"/>
      <feComposite in2="blur" operator="in"/>
      <feComposite in="SourceGraphic"/>
    </filter>
    <style>
      .cls-1{fill:url(#linear-gradient)}.cls-6{opacity:.5}.cls-7,.cls-8{fill:none;stroke:#fff;stroke-linecap:round}.cls-8{stroke-linejoin:round}.cls-10{fill:#fff}
    </style>
  </defs>
  <g id="Group_29452" transform="translate(9 6)">
    <path id="Path_9356" fill="#2b2d3c" d="M0 639.833V700l393.943-30.174z" transform="translate(0 -132.999)"/>
    <g id="Group_29451">
      <g id="Group_29450" transform="translate(0 -102)">
        <g filter="url(#Path_9353)" transform="translate(-9 96)">
          <path id="Path_9353-3" fill="#383d51" d="M0-61.271h1400v600L0 453.322z" transform="translate(9 67.27)"/>
        </g>
        <g id="Mask_Group_678" clip-path="url(#clip-path)" transform="translate(-2456 17010)">
          <g id="Mask_Group_637" clip-path="url(#clip-path-2)" opacity="0.15" transform="translate(9704 -12144.729)">
            <g id="Group_25725">
              <g id="Group_25720" class="cls-6" transform="translate(-7248.969 -4241.604)">
                <path id="Path_7473" d="M0 0l78.744 7.957" class="cls-7" transform="translate(1320.651 .125)"/>
                <path id="Path_7484" d="M78.743 0L0 7.957" class="cls-7" transform="translate(.606 .125)"/>
                <path id="Path_7462" d="M0 0l182.529 424.273" class="cls-7" transform="translate(726.882 .123)"/>
                <path id="Path_7487" d="M182.529 0L0 424.273" class="cls-7" transform="translate(490.59 .123)"/>
                <path id="Path_7463" d="M0 0l547.688 424.775" class="cls-7" transform="translate(780.927 .123)"/>
                <path id="Path_7486" d="M547.688 0L0 424.775" class="cls-7" transform="translate(71.386 .123)"/>
                <path id="Path_7464" d="M0 0l564.027 262.358" class="cls-7" transform="translate(835.098 .155)"/>
                <path id="Path_7475" d="M564.028 0L0 262.358" class="cls-7" transform="translate(.875 .155)"/>
                <path id="Path_7465" d="M0 0l509.909 169.473" class="cls-7" transform="translate(889.004 .123)"/>
                <path id="Path_7476" d="M509.91 0L0 169.473" class="cls-7" transform="translate(1.087 .123)"/>
                <path id="Path_7466" d="M456.453 117.8L0 0" class="cls-7" transform="translate(942.561 .046)"/>
                <path id="Path_7477" d="M0 117.8L456.453 0" class="cls-7" transform="translate(.986 .046)"/>
                <path id="Path_7467" d="M0 0l400.608 85.441" class="cls-7" transform="translate(997.958 .046)"/>
                <path id="Path_7478" d="M400.608 0L0 85.441" class="cls-7" transform="translate(1.435 .047)"/>
                <path id="Path_7468" d="M0 0l347.938 61.888" class="cls-7" transform="translate(1052.062 .046)"/>
                <path id="Path_7479" d="M347.938 0L0 61.888" class="cls-7" transform="translate(0 .046)"/>
                <path id="Path_7469" d="M0 0l293.541 45.84" class="cls-7" transform="translate(1105.78 .046)"/>
                <path id="Path_7480" d="M293.541 0L0 45.84" class="cls-7" transform="translate(.679 .047)"/>
                <path id="Path_7470" d="M0 0l240.009 32.865" class="cls-7" transform="translate(1159.857 .155)"/>
                <path id="Path_7481" d="M240.009 0L0 32.865" class="cls-7" transform="translate(.132 .155)"/>
                <path id="Path_7471" d="M0 0l185.7 22.895" class="cls-7" transform="translate(1213.989 .022)"/>
                <path id="Path_7482" d="M185.7 0L0 22.895" class="cls-7" transform="translate(.311 .022)"/>
                <path id="Path_7472" d="M0 0l132.872 14.724" class="cls-7" transform="translate(1266.526)"/>
                <path id="Path_7483" d="M132.872 0L0 14.724" class="cls-7" transform="translate(.602)"/>
                <path id="Line_1" d="M0 0L1399.11 0" class="cls-7" transform="translate(.45 394.449)"/>
                <path id="Line_2" d="M0 0L1399.11 0" class="cls-7" transform="translate(.45 337.118)"/>
                <path id="Line_3" d="M0 0L1399.11 0" class="cls-7" transform="translate(.45 286.275)"/>
                <path id="Line_4" d="M0 0L1399.11 0" class="cls-7" transform="translate(.45 241.924)"/>
                <path id="Line_5" d="M0 0L1399.11 0" class="cls-7" transform="translate(.45 202.981)"/>
                <path id="Line_6" d="M0 0L1399.11 0" class="cls-7" transform="translate(.45 169.446)"/>
                <path id="Line_7" d="M0 0L1399.11 0" class="cls-7" transform="translate(.45 140.24)"/>
                <path id="Line_9" d="M0 0L1399.11 0" class="cls-7" transform="translate(.45 93.726)"/>
                <path id="Line_10" d="M0 0L1399.11 0" class="cls-7" transform="translate(.45 76.418)"/>
                <path id="Line_11" d="M0 0L1399.11 0" class="cls-7" transform="translate(.45 61.273)"/>
                <path id="Line_12" d="M0 0L1399.11 0" class="cls-7" transform="translate(.45 48.292)"/>
                <path id="Line_13" d="M0 0L1399.11 0" class="cls-7" transform="translate(.45 38.557)"/>
                <path id="Line_14" d="M0 0L1399.11 0" class="cls-7" transform="translate(.45 29.903)"/>
                <path id="Line_15" d="M0 0L1399.11 0" class="cls-7" transform="translate(.45 23.412)"/>
                <path id="Line_16" d="M0 0L1399.11 0" class="cls-7" transform="translate(.45 16.922)"/>
                <path id="Line_17" d="M0 0L1399.11 0" class="cls-7" transform="translate(.45 10.432)"/>
                <path id="Path_9368" d="M0 0h1399.11" class="cls-7" transform="translate(.45 5.023)"/>
                <path id="Path_9369" d="M0 0h1399.11" class="cls-7" transform="translate(.45 .023)"/>
              </g>
              <g id="Group_25723" class="cls-6">
                <g id="Group_25721" class="cls-6" transform="translate(-7243 -4422.832)">
                  <path id="Path_9362" d="M-7248-5502.5l88.176-99.336 48.531 49.128" class="cls-8" transform="translate(7248 5601.832)"/>
                  <path id="Path_9363" d="M-6576.238-5420.722l-89.151-65.35-33.595 33.595-17.961-17.961-17.961 17.961h-31.934l-53.129-53.129-47.5 47.5-91.026-91.026-43.524 43.524-78.071-78.071-47.7 47.7 71.488 19.82" class="cls-8" transform="translate(7248 5601.832)"/>
                  <path id="Path_9364" d="M-7248-5537.6l23.59-23.59 15.055 15.216 77.671 90.641 4.074-80.737-32.388-65.66-14.892 95.838-44.72-28.43-28.39 60.67 116.315 18.5-120.635 33.912" class="cls-8" transform="translate(7248 5601.832)"/>
                  <path id="Path_9365" d="M-6847.015-5479.546l-29.47-29.471L-6897.5-5488l-2.784 61.485" class="cls-8" transform="translate(7248 5601.832)"/>
                  <path id="Path_9366" d="M-6867.443-5458.27l-32.478 32.478-41.55-41.55-41.549 41.55" class="cls-8" transform="translate(7248 5601.832)"/>
                  <path id="Path_9367" d="M-7001.76-5505.914l-60.111 60.111-16.76-16.76-22.5-22.5-59.159 59.5" class="cls-8" transform="translate(7248 5601.832)"/>
                  <path id="Path_9370" d="M-7080-5005.2l24.109 66.731-45.085 31.534 82.754-4.756-37.669-26.777" class="cls-8" transform="translate(7248 5023.832)"/>
                  <path id="Path_9371" d="M-7100.972-4906.939l12.261 59.253 26.984-19.974 31.473 19.974 132.721-62.175-104.757-17.622-27.964 79.8 76.021-71.63" class="cls-8" transform="translate(7248 5023.832)"/>
                  <path id="Path_9372" d="M-6876.605-4930.736l17.881 41.713" class="cls-7" transform="translate(7248 5023.832)"/>
                  <path id="Path_9373" d="M-6820.116-4927.482l-55.22 80.092 108.69-26.627 10.859 26.528 56.721-26.952-35.829-.051 24.158-11.656" class="cls-8" transform="translate(7248 5023.832)"/>
                  <path id="Path_9374" d="M-6665.385-4907.9l56.578 60.168-108.435-17.7 73.21-19.153" class="cls-8" transform="translate(7248 5023.832)"/>
                </g>
                <g id="Group_25722" transform="translate(-7248 -4417.832)">
                  <path id="Path_9362-2" d="M-7248-5502.5l88.176-99.336 48.531 49.128" class="cls-8" transform="translate(7248 5601.832)"/>
                  <path id="Path_9363-2" d="M-6580.1-5425.73l-85.817-60.625-33.557 33.5-17.941-17.909-17.941 17.909h-31.9l-53.068-52.975-47.449 47.365-90.923-90.763-43.475 43.4-77.982-77.845-47.647 47.563 71.407 19.763" class="cls-8" transform="translate(7248 5601.832)"/>
                  <path id="Path_9364-2" d="M-7248-5537.6l23.59-23.59 15.055 15.216 77.671 90.641 4.074-80.737-32.388-65.66-14.892 95.838-44.72-28.43-28.39 60.67 116.315 18.5-116.315 29.367" class="cls-8" transform="translate(7248 5601.832)"/>
                  <path id="Path_9365-2" d="M-6847.015-5479.546l-29.47-29.471L-6897.5-5488l-2.784 61.485" class="cls-8" transform="translate(7248 5601.832)"/>
                  <path id="Path_9366-2" d="M-6867.443-5458.27l-32.478 32.478-41.55-41.55-41.549 41.55" class="cls-8" transform="translate(7248 5601.832)"/>
                  <path id="Path_9367-2" d="M-7001.76-5505.914l-60.111 60.111-16.76-16.76-22.5-22.5-59.159 59.5" class="cls-8" transform="translate(7248 5601.832)"/>
                  <path id="Path_9370-2" d="M-7080-5005.2l24.109 66.731-45.085 31.534 82.754-4.756-37.669-26.777" class="cls-8" transform="translate(7248 5023.832)"/>
                  <path id="Path_9371-2" d="M-7100.972-4906.939l12.261 59.253 26.984-19.974 31.473 19.974 132.721-62.175-104.757-17.622-27.964 79.8 76.021-71.63" class="cls-8" transform="translate(7248 5023.832)"/>
                  <path id="Path_9372-2" d="M-6876.605-4930.736l17.881 41.713" class="cls-7" transform="translate(7248 5023.832)"/>
                  <path id="Path_9373-2" d="M-6820.116-4927.482l-55.22 80.092 108.69-26.627 10.859 26.528 56.721-26.952-35.829-.051 24.158-11.656" class="cls-8" transform="translate(7248 5023.832)"/>
                  <path id="Path_9374-2" d="M-6665.385-4907.9l56.578 60.168-108.435-17.7 73.21-19.153" class="cls-8" transform="translate(7248 5023.832)"/>
                </g>
              </g>
              <g id="Group_25724" class="cls-6" transform="translate(-6526 -4422.832)">
                <g id="Group_25721-2" class="cls-6">
                  <path id="Path_9362-3" d="M-7111.293-5502.5l-88.176-99.336L-7248-5552.7" class="cls-8" transform="translate(7783.055 5601.832)"/>
                  <path id="Path_9363-3" d="M-7127.793-5420.722l89.151-65.35 33.595 33.595 17.961-17.961 17.961 17.961h31.934l53.129-53.129 47.5 47.5 91.026-91.026 43.524 43.524 78.071-78.071 47.7 47.7-71.488 19.82" class="cls-8" transform="translate(7127.793 5601.832)"/>
                  <path id="Path_9364-3" d="M-7131.93-5537.6l-23.59-23.59-15.055 15.216-77.671 90.641-4.074-80.737 32.388-65.66 14.892 95.838 44.72-28.43 28.389 60.668-116.315 18.5 120.635 33.912" class="cls-8" transform="translate(7803.692 5601.832)"/>
                  <path id="Path_9365-3" d="M-6900.286-5479.546l29.47-29.471L-6849.8-5488l2.784 61.485" class="cls-8" transform="translate(7171.063 5601.832)"/>
                  <path id="Path_9366-3" d="M-6983.02-5458.27l32.478 32.478 41.55-41.55 41.549 41.55" class="cls-8" transform="translate(7274.225 5601.832)"/>
                  <path id="Path_9367-3" d="M-7160.288-5505.914l60.111 60.111 16.76-16.76 22.5-22.5 59.159 59.5" class="cls-8" transform="translate(7585.81 5601.832)"/>
                  <path id="Path_9370-3" d="M-7039.193-5005.2l-24.109 66.731 45.085 31.534-82.754-4.756 37.669-26.777" class="cls-8" transform="translate(7542.952 5023.832)"/>
                  <path id="Path_9371-3" d="M-6897.534-4906.939l-12.261 59.253-26.984-19.974-31.473 19.974-132.721-62.175 104.757-17.622 27.964 79.8-76.021-71.63" class="cls-8" transform="translate(7422.268 5023.832)"/>
                  <path id="Path_9372-3" d="M-6858.725-4930.736l-17.881 41.713" class="cls-7" transform="translate(7159.092 5023.832)"/>
                  <path id="Path_9373-3" d="M-6754.287-4927.482l55.22 80.092-108.69-26.627-10.859 26.528-56.721-26.952 35.829-.051-24.158-11.656" class="cls-8" transform="translate(6998.165 5023.832)"/>
                  <path id="Path_9374-3" d="M-6660.664-4907.9l-56.578 60.168 108.435-17.7-73.21-19.153" class="cls-8" transform="translate(6749.811 5023.832)"/>
                </g>
                <g id="Group_25722-2" transform="translate(8.858 5)">
                  <path id="Path_9362-4" d="M-7111.293-5502.5l-88.176-99.336L-7248-5552.7" class="cls-8" transform="translate(7779.197 5601.832)"/>
                  <path id="Path_9363-4" d="M-7127.793-5425.73l85.817-60.625 33.557 33.5 17.941-17.909 17.941 17.909h31.9l53.068-52.975 47.449 47.365 90.923-90.763 43.475 43.4 77.982-77.845 47.647 47.563-71.407 19.763" class="cls-8" transform="translate(7127.793 5601.832)"/>
                  <path id="Path_9364-4" d="M-7127.611-5537.6l-23.59-23.59-15.055 15.216-77.671 90.641-4.074-80.737 32.388-65.66 14.892 95.838 44.72-28.43 28.389 60.668-116.315 18.5 116.315 29.368" class="cls-8" transform="translate(7795.516 5601.832)"/>
                  <path id="Path_9365-4" d="M-6900.286-5479.546l29.47-29.471L-6849.8-5488l2.784 61.485" class="cls-8" transform="translate(7167.205 5601.832)"/>
                  <path id="Path_9366-4" d="M-6983.02-5458.27l32.478 32.478 41.55-41.55 41.549 41.55" class="cls-8" transform="translate(7270.367 5601.832)"/>
                  <path id="Path_9367-4" d="M-7160.288-5505.914l60.111 60.111 16.76-16.76 22.5-22.5 59.159 59.5" class="cls-8" transform="translate(7581.952 5601.832)"/>
                  <path id="Path_9370-4" d="M-7039.193-5005.2l-24.109 66.731 45.085 31.534-82.754-4.756 37.669-26.777" class="cls-8" transform="translate(7539.094 5023.832)"/>
                  <path id="Path_9371-4" d="M-6897.534-4906.939l-12.261 59.253-26.984-19.974-31.473 19.974-132.721-62.175 104.757-17.622 27.964 79.8-76.021-71.63" class="cls-8" transform="translate(7418.41 5023.832)"/>
                  <path id="Path_9372-4" d="M-6858.725-4930.736l-17.881 41.713" class="cls-7" transform="translate(7155.234 5023.832)"/>
                  <path id="Path_9373-4" d="M-6754.287-4927.482l55.22 80.092-108.69-26.627-10.859 26.528-56.721-26.952 35.829-.051-24.158-11.656" class="cls-8" transform="translate(6994.307 5023.832)"/>
                  <path id="Path_9374-4" d="M-6660.664-4907.9l-56.578 60.168 108.435-17.7-73.21-19.153" class="cls-8" transform="translate(6745.953 5023.832)"/>
                </g>
              </g>
            </g>
          </g>
        </g>
      </g>
      <g id="Group_26441" opacity="0.15" transform="translate(-1483 -1416)">
        <path id="Path_9813" d="M23.838 47.8c-.181 0-.362 0-.543-.007a.8.8 0 0 1-.776-.816.785.785 0 0 1 .816-.776c.181 0 .361.007.545.006a22.692 22.692 0 0 0 2.524-.141.8.8 0 1 1 .178 1.582 23.7 23.7 0 0 1-2.744.152zm-3.69-.3a.808.808 0 0 1-.129-.01 23.8 23.8 0 0 1-3.2-.752.8.8 0 0 1 .47-1.521 22.267 22.267 0 0 0 2.989.7.8.8 0 0 1-.126 1.581zm9.471-.419a.8.8 0 0 1-.2-1.567 22.182 22.182 0 0 0 2.917-.967.8.8 0 0 1 .6 1.473 23.812 23.812 0 0 1-3.126 1.036.77.77 0 0 1-.19.024zm-15.535-1.457a.794.794 0 0 1-.337-.075 23.964 23.964 0 0 1-2.874-1.6.8.8 0 0 1 .868-1.335 22.308 22.308 0 0 0 2.681 1.493.8.8 0 0 1-.339 1.517zm21.416-.956a.8.8 0 0 1-.4-1.483 22.544 22.544 0 0 0 2.541-1.727.8.8 0 1 1 .983 1.253A24.042 24.042 0 0 1 35.9 44.56a.793.793 0 0 1-.4.108zm-26.729-2.5a.8.8 0 0 1-.521-.194 24.124 24.124 0 0 1-2.333-2.32.8.8 0 0 1 1.2-1.049 22.354 22.354 0 0 0 2.177 2.166.8.8 0 0 1-.521 1.4zm31.721-1.416a.8.8 0 0 1-.573-1.349 22.489 22.489 0 0 0 1.978-2.35.8.8 0 1 1 1.285.939 24.169 24.169 0 0 1-2.117 2.517.793.793 0 0 1-.577.239zM4.586 37.39a.794.794 0 0 1-.666-.358 23.973 23.973 0 0 1-1.62-2.868.8.8 0 1 1 1.438-.684 22.339 22.339 0 0 0 1.512 2.677.8.8 0 0 1-.664 1.233zm39.643-1.766a.8.8 0 0 1-.7-1.173 22.351 22.351 0 0 0 1.262-2.8.8.8 0 1 1 1.493.552 23.868 23.868 0 0 1-1.352 3 .8.8 0 0 1-.703.422zM1.858 31.656A.8.8 0 0 1 1.1 31.1a23.775 23.775 0 0 1-.768-3.2.8.8 0 1 1 1.57-.264 22.258 22.258 0 0 0 .717 2.986.8.8 0 0 1-.759 1.035zm44.574-1.981a.813.813 0 0 1-.171-.018.8.8 0 0 1-.607-.948 22.277 22.277 0 0 0 .448-3.038.8.8 0 1 1 1.587.123 23.862 23.862 0 0 1-.48 3.255.8.8 0 0 1-.778.626zM.806 25.4a.8.8 0 0 1-.8-.773C0 24.391 0 24.154 0 23.918a24.254 24.254 0 0 1 .138-2.579.8.8 0 0 1 1.583.17 22.8 22.8 0 0 0-.129 2.409q0 .332.01.661a.8.8 0 0 1-.773.819zm46.16-.684a.8.8 0 0 1-.8-.8 22.594 22.594 0 0 0-.208-3.065.8.8 0 1 1 1.577-.217 24.17 24.17 0 0 1 .224 3.281.8.8 0 0 1-.794.799zM1.487 19.089a.815.815 0 0 1-.194-.024.8.8 0 0 1-.578-.965 23.716 23.716 0 0 1 1.019-3.13.8.8 0 0 1 1.476.6 22.248 22.248 0 0 0-.951 2.919.8.8 0 0 1-.772.6zm44.613-.661a.8.8 0 0 1-.766-.58 22.235 22.235 0 0 0-1.038-2.892.8.8 0 1 1 1.457-.642 23.779 23.779 0 0 1 1.113 3.1.8.8 0 0 1-.55.983.8.8 0 0 1-.216.031zM3.863 13.207a.8.8 0 0 1-.689-1.194 24.06 24.06 0 0 1 1.834-2.729.8.8 0 1 1 1.257.976 22.519 22.519 0 0 0-1.712 2.549.8.8 0 0 1-.69.398zm39.682-.593a.8.8 0 0 1-.678-.378 22.388 22.388 0 0 0-1.789-2.5.8.8 0 0 1 1.228-1.013 24.077 24.077 0 0 1 1.916 2.677.795.795 0 0 1-.677 1.213zM7.755 8.2A.8.8 0 0 1 7.2 6.829 23.953 23.953 0 0 1 9.705 4.7a.8.8 0 1 1 .946 1.281 22.527 22.527 0 0 0-2.34 1.99.8.8 0 0 1-.556.229zM39.5 7.719a.8.8 0 0 1-.539-.21 22.538 22.538 0 0 0-2.4-1.919.8.8 0 0 1 .907-1.308 23.988 23.988 0 0 1 2.568 2.056.8.8 0 0 1-.536 1.381zM12.862 4.424a.8.8 0 0 1-.381-1.5 23.86 23.86 0 0 1 2.994-1.37.8.8 0 1 1 .56 1.49 22.145 22.145 0 0 0-2.794 1.278.794.794 0 0 1-.379.102zM34.289 4.1a.791.791 0 0 1-.359-.086 22.252 22.252 0 0 0-2.83-1.189.8.8 0 0 1 .516-1.507A23.893 23.893 0 0 1 34.65 2.6a.8.8 0 0 1-.36 1.506zM18.8 2.189a.8.8 0 0 1-.169-1.572 23.864 23.864 0 0 1 3.253-.5.8.8 0 1 1 .131 1.587 22.349 22.349 0 0 0-3.035.463.806.806 0 0 1-.18.022zm9.482-.14a.823.823 0 0 1-.152-.014 22.35 22.35 0 0 0-3.048-.373.8.8 0 1 1 .085-1.59 23.93 23.93 0 0 1 3.266.4.8.8 0 0 1-.151 1.578z" class="cls-10" transform="translate(1592.52 1609.395)"/>
        <path id="Path_9814" d="M42.506 60.44a.8.8 0 0 1-.01-1.592 16.8 16.8 0 0 0 3.018-.311.8.8 0 0 1 .306 1.563 18.424 18.424 0 0 1-3.3.341zm-3.168-.24a.787.787 0 0 1-.134-.011 18.253 18.253 0 0 1-3.213-.851.8.8 0 0 1 .547-1.5 16.665 16.665 0 0 0 2.932.777.8.8 0 0 1-.132 1.581zm9.382-.976a.8.8 0 0 1-.292-1.537 16.755 16.755 0 0 0 2.708-1.369.8.8 0 1 1 .844 1.35 18.339 18.339 0 0 1-2.967 1.5.8.8 0 0 1-.294.051zm-15.329-1.2a.79.79 0 0 1-.4-.111 18.441 18.441 0 0 1-2.7-1.941.8.8 0 1 1 1.043-1.2 16.87 16.87 0 0 0 2.466 1.769.8.8 0 0 1-.406 1.481zm20.7-2.162a.8.8 0 0 1-.537-1.383 16.892 16.892 0 0 0 2.046-2.243.8.8 0 0 1 1.268.963 18.453 18.453 0 0 1-2.241 2.453.8.8 0 0 1-.539.208zm-25.484-1.988a.8.8 0 0 1-.622-.3A18.333 18.333 0 0 1 26.15 50.8a.8.8 0 0 1 1.4-.755 16.776 16.776 0 0 0 1.676 2.53.8.8 0 0 1-.62 1.294zm29.31-3.056a.8.8 0 0 1-.71-1.156 16.655 16.655 0 0 0 1.116-2.821.8.8 0 0 1 1.528.448 18.245 18.245 0 0 1-1.223 3.091.8.8 0 0 1-.711.438zM25.6 48.3a.8.8 0 0 1-.757-.553 18.262 18.262 0 0 1-.725-3.243.8.8 0 0 1 1.579-.2 16.649 16.649 0 0 0 .661 2.96.8.8 0 0 1-.758 1.036zm34.1-3.556a.7.7 0 0 1-.082 0 .8.8 0 0 1-.71-.873 16.942 16.942 0 0 0-.184-4.755.8.8 0 1 1 1.566-.286 18.444 18.444 0 0 1 .3 3.308 18.64 18.64 0 0 1-.1 1.9.8.8 0 0 1-.79.705zM24.79 42.02h-.041a.8.8 0 0 1-.754-.836 18.438 18.438 0 0 1 .469-3.29.8.8 0 0 1 1.549.367 16.774 16.774 0 0 0-.429 3 .8.8 0 0 1-.794.759zm33.862-5.32a.8.8 0 0 1-.744-.514 16.686 16.686 0 0 0-1.334-2.726.8.8 0 0 1 1.36-.827 18.259 18.259 0 0 1 1.466 2.989.8.8 0 0 1-.743 1.08zm-32.4-.841a.8.8 0 0 1-.728-1.118 18.381 18.381 0 0 1 1.614-2.9.8.8 0 0 1 1.316.9 16.736 16.736 0 0 0-1.473 2.652.8.8 0 0 1-.73.467zm29.113-4.571a.8.8 0 0 1-.595-.267 16.915 16.915 0 0 0-2.215-2.076.8.8 0 0 1 .98-1.255 18.47 18.47 0 0 1 2.424 2.272.8.8 0 0 1-.595 1.326zm-25.549-.663a.8.8 0 0 1-.566-1.355 18.531 18.531 0 0 1 2.538-2.145.8.8 0 1 1 .913 1.3 16.851 16.851 0 0 0-2.321 1.965.792.792 0 0 1-.565.237zm20.556-3.233A.791.791 0 0 1 50 27.3a16.683 16.683 0 0 0-2.8-1.149.8.8 0 1 1 .469-1.521 18.3 18.3 0 0 1 3.075 1.263.8.8 0 0 1-.369 1.5zM35 27a.8.8 0 0 1-.332-1.52 18.27 18.27 0 0 1 3.138-1.1.8.8 0 1 1 .388 1.544 16.656 16.656 0 0 0-2.863 1A.791.791 0 0 1 35 27zm9.319-1.461a.734.734 0 0 1-.093-.006 17.092 17.092 0 0 0-3.035-.078.8.8 0 0 1-.1-1.589 18.75 18.75 0 0 1 3.32.086.8.8 0 0 1-.09 1.587z" class="cls-10" transform="translate(1574.122 1591.18)"/>
        <path id="Path_9815" d="M63.14 75.379a12.075 12.075 0 0 1-1.7-.12.8.8 0 1 1 .224-1.576 10.568 10.568 0 0 0 2.948 0 .8.8 0 0 1 .224 1.576 12.14 12.14 0 0 1-1.696.12zm-4.63-1a.79.79 0 0 1-.331-.073 11.937 11.937 0 0 1-2.858-1.84.8.8 0 1 1 1.043-1.2 10.371 10.371 0 0 0 2.478 1.595.8.8 0 0 1-.331 1.519zm9.262 0a.8.8 0 0 1-.332-1.52 10.368 10.368 0 0 0 2.477-1.6.8.8 0 1 1 1.043 1.2A11.954 11.954 0 0 1 68.1 74.3a.786.786 0 0 1-.328.073zM53.765 70.26a.8.8 0 0 1-.67-.365 11.892 11.892 0 0 1-1.414-3.095.8.8 0 0 1 1.528-.448 10.277 10.277 0 0 0 1.225 2.678.8.8 0 0 1-.238 1.1.788.788 0 0 1-.431.13zm18.752 0a.8.8 0 0 1-.669-1.227 10.28 10.28 0 0 0 1.224-2.678.8.8 0 1 1 1.528.445 11.874 11.874 0 0 1-1.413 3.093.793.793 0 0 1-.67.365zm1.768-6.024a.8.8 0 0 1-.8-.8 10.371 10.371 0 0 0-.416-2.916.8.8 0 0 1 1.528-.448 11.963 11.963 0 0 1 .481 3.364.8.8 0 0 1-.793.798zM52 64.234a.8.8 0 0 1-.8-.8 11.949 11.949 0 0 1 .48-3.363.8.8 0 0 1 1.528.448 10.362 10.362 0 0 0-.416 2.915.8.8 0 0 1-.792.8zm1.767-6.025a.8.8 0 0 1-.669-1.227 12.008 12.008 0 0 1 2.226-2.568.8.8 0 1 1 1.043 1.2 10.414 10.414 0 0 0-1.931 2.227.794.794 0 0 1-.673.369zm18.755 0a.8.8 0 0 1-.67-.365 10.38 10.38 0 0 0-1.931-2.227.8.8 0 1 1 1.043-1.2 11.989 11.989 0 0 1 2.227 2.568.8.8 0 0 1-.668 1.227zm-4.752-4.114a.8.8 0 0 1-.331-.072 10.29 10.29 0 0 0-2.826-.829.8.8 0 1 1 .224-1.576 11.887 11.887 0 0 1 3.263.956.8.8 0 0 1-.331 1.52zm-9.26 0a.8.8 0 0 1-.332-1.52 11.853 11.853 0 0 1 3.263-.957.8.8 0 1 1 .224 1.576 10.289 10.289 0 0 0-2.826.829.782.782 0 0 1-.329.072z" class="cls-10" transform="translate(1553.26 1569.875)"/>
        <path id="Path_9816" d="M84.079 89.579a5.572 5.572 0 1 1 5.572-5.572 5.578 5.578 0 0 1-5.572 5.572zm0-9.552a3.98 3.98 0 1 0 3.98 3.98 3.985 3.985 0 0 0-3.98-3.98z" class="cls-10" transform="translate(1532.321 1549.305)"/>
      </g>
    </g>
  </g>
</svg>
