<svg xmlns="http://www.w3.org/2000/svg" xmlns:xlink="http://www.w3.org/1999/xlink" width="411" height="656" viewBox="0 0 411 656"><defs><style>.a{fill:#383d51;}.b{fill:#2b2d3c;}.c{opacity:0.3;clip-path:url(#c);}.d,.f{isolation:isolate;}.e,.g{fill:none;stroke:#fff;stroke-linecap:round;stroke-width:0.5px;}.f{opacity:0.5;}.g{stroke-linejoin:round;}.h{filter:url(#a);}</style><filter id="a" x="0" y="0" width="411" height="656" filterUnits="userSpaceOnUse"><feOffset dy="6" input="SourceAlpha"/><feGaussianBlur stdDeviation="6" result="b"/><feFlood flood-opacity="0.161"/><feComposite operator="in" in2="b"/><feComposite in="SourceGraphic"/></filter><clipPath id="c"><path class="a" d="M0,15.443H375v620L0,566.139Z" transform="translate(7601 -17084.443)"/></clipPath></defs><g transform="translate(-7046 17081)"><path class="b" d="M0,639.833v57.274l375-28.723Z" transform="translate(7064 -17180.355)"/><g class="h" transform="matrix(1, 0, 0, 1, 7046, -17081)"><path class="a" d="M0,15.443H375v620L0,566.139Z" transform="translate(18 -3.44)"/></g><g class="c" transform="translate(-537)"><g class="d"><path class="e" d="M0,0,21.092,4.071" transform="translate(7954.746 -16533.488)"/><path class="e" d="M21.092,0,0,4.071" transform="translate(7601.163 -16533.488)"/><path class="e" d="M0,0,48.892,217.069" transform="translate(7795.7 -16533.49)"/><path class="e" d="M48.892,0,0,217.069" transform="translate(7732.408 -16533.49)"/><path class="e" d="M0,0,146.7,217.326" transform="translate(7810.177 -16533.49)"/><path class="e" d="M146.7,0,0,217.326" transform="translate(7620.121 -16533.49)"/><path class="e" d="M0,0,151.079,134.229" transform="translate(7824.687 -16533.473)"/><path class="e" d="M151.079,0,0,134.229" transform="translate(7601.234 -16533.473)"/><path class="e" d="M0,0,136.583,86.706" transform="translate(7839.126 -16533.49)"/><path class="e" d="M136.583,0,0,86.706" transform="translate(7601.291 -16533.49)"/><path class="e" d="M122.264,60.268,0,0" transform="translate(7853.472 -16533.529)"/><path class="e" d="M0,60.268,122.264,0" transform="translate(7601.264 -16533.529)"/><path class="e" d="M0,0,107.306,43.714" transform="translate(7868.31 -16533.529)"/><path class="e" d="M107.306,0,0,43.714" transform="translate(7601.384 -16533.529)"/><path class="e" d="M0,0,93.2,31.663" transform="translate(7882.802 -16533.529)"/><path class="e" d="M93.2,0,0,31.663" transform="translate(7601 -16533.529)"/><path class="e" d="M0,0,78.627,23.453" transform="translate(7897.191 -16533.529)"/><path class="e" d="M78.627,0,0,23.453" transform="translate(7601.182 -16533.529)"/><path class="e" d="M0,0,64.288,16.815" transform="translate(7911.676 -16533.473)"/><path class="e" d="M64.288,0,0,16.815" transform="translate(7601.035 -16533.473)"/><path class="e" d="M0,0,49.741,11.713" transform="translate(7926.175 -16533.541)"/><path class="e" d="M49.741,0,0,11.713" transform="translate(7601.083 -16533.541)"/><path class="e" d="M0,0,35.591,7.533" transform="translate(7940.248 -16533.553)"/><path class="e" d="M35.591,0,0,7.533" transform="translate(7601.161 -16533.553)"/><line class="e" x2="374.762" transform="translate(7601.121 -16331.743)"/><line class="e" x2="374.762" transform="translate(7601.121 -16361.075)"/><line class="e" x2="374.762" transform="translate(7601.121 -16387.088)"/><line class="e" x2="374.762" transform="translate(7601.121 -16409.779)"/><line class="e" x2="374.762" transform="translate(7601.121 -16429.703)"/><line class="e" x2="374.762" transform="translate(7601.121 -16446.859)"/><line class="e" x2="374.762" transform="translate(7601.121 -16466.918)"/><line class="e" x2="374.762" transform="translate(7601.121 -16485.6)"/><line class="e" x2="374.762" transform="translate(7601.121 -16494.455)"/><line class="e" x2="374.762" transform="translate(7601.121 -16502.203)"/><line class="e" x2="374.762" transform="translate(7601.121 -16508.846)"/><line class="e" x2="374.762" transform="translate(7601.121 -16513.826)"/><line class="e" x2="374.762" transform="translate(7601.121 -16518.254)"/><line class="e" x2="374.762" transform="translate(7601.121 -16521.574)"/><line class="e" x2="374.762" transform="translate(7601.121 -16524.895)"/><line class="e" x2="374.762" transform="translate(7601.121 -16528.215)"/><path class="e" d="M0,0H374.762" transform="translate(7601.121 -16530.982)"/><path class="e" d="M0,0H374.762" transform="translate(7601.121 -16533.541)"/><g class="f" transform="translate(7668.724 -16629.664)"><path class="g" d="M-7185.931-5549.213l-40.034-52.619L-7248-5575.809" transform="translate(7490.937 5601.833)"/><path class="g" d="M-7127.794-5497.358l40.479-34.617,15.253,17.8,8.155-9.514,8.155,9.514h14.5l24.122-28.143,21.568,25.163,41.329-48.219,19.762,23.056,35.447-41.355,21.658,25.268-32.459,10.5" transform="translate(7127.794 5593.295)"/><path class="g" d="M-7197.657-5567.759l-10.711-12.5-6.835,8.06-35.266,48.013-1.85-42.767,14.7-34.781,6.762,50.767,20.3-15.06,12.89,32.137-52.812,9.8,54.772,17.964" transform="translate(7502.663 5601.784)"/><path class="g" d="M-6900.286-5493.406l13.381-15.611,9.543,11.132,1.264,32.569" transform="translate(7023.229 5558.182)"/><path class="g" d="M-6983.021-5462.536l14.747,17.2,18.864-22.009,18.865,22.009" transform="translate(7115.238 5538.583)"/><path class="g" d="M-7160.288-5505.914l27.292,31.843,7.609-8.879,10.215-11.917,26.86,31.52" transform="translate(7353.491 5556.724)"/><path class="g" d="M-7072.922-5005.2l-10.946,35.348,20.47,16.7-37.573-2.52,17.1-14.185" transform="translate(7301.647 5015.072)"/><path class="g" d="M-7008.6-4916.6l-5.567,31.388-12.252-10.581-14.291,10.581-60.26-32.935,47.563-9.334,12.7,42.269-34.516-37.944" transform="translate(7246.853 4978.52)"/><path class="e" d="M-6868.487-4930.736l-8.118,22.1" transform="translate(7004.865 4980.05)"/><path class="g" d="M-6820.375-4927.482l25.071,42.425-49.35-14.1-4.931,14.052-25.753-14.276,16.268-.027-10.968-6.174" transform="translate(6931.106 4978.52)"/><path class="g" d="M-6691.553-4907.9l-25.689,31.872,49.234-9.375-33.241-10.146" transform="translate(6732.03 4969.31)"/></g><path class="g" d="M-7185.931-5549.213l-40.034-52.619L-7248-5575.809" transform="translate(15161.93 -11025.184)"/><path class="g" d="M-7127.794-5500.012l38.964-32.113,15.236,17.744,8.146-9.487,8.146,9.487h14.482l24.095-28.062,21.544,25.09,41.282-48.079,19.74,22.988,35.406-41.235,21.634,25.194-32.421,10.47" transform="translate(14800.539 -11033.721)"/><path class="g" d="M-7193.339-5567.759l-10.711-12.5-6.835,8.06-35.266,48.013-1.85-42.767,14.706-34.781,6.762,50.767,20.3-15.06,12.89,32.137-52.812,9.8,52.813,15.557" transform="translate(15169.34 -11025.231)"/><path class="g" d="M-6900.286-5493.406l13.381-15.611,9.543,11.132,1.264,32.569" transform="translate(14694.223 -11068.834)"/><path class="g" d="M-6983.021-5462.536l14.747,17.2,18.864-22.009,18.865,22.009" transform="translate(14786.232 -11088.433)"/><path class="g" d="M-7160.288-5505.914l27.292,31.843,7.609-8.879,10.215-11.917,26.86,31.52" transform="translate(15024.485 -11070.292)"/><path class="g" d="M-7072.922-5005.2l-10.946,35.348,20.47,16.7-37.573-2.52,17.1-14.185" transform="translate(14972.641 -11611.943)"/><path class="g" d="M-7008.6-4916.6l-5.567,31.388-12.252-10.581-14.291,10.581-60.26-32.935,47.563-9.334,12.7,42.269-34.516-37.944" transform="translate(14917.847 -11648.496)"/><path class="e" d="M-6868.487-4930.736l-8.118,22.1" transform="translate(14675.859 -11646.966)"/><path class="g" d="M-6820.375-4927.482l25.071,42.425-49.35-14.1-4.931,14.052-25.753-14.276,16.268-.027-10.968-6.174" transform="translate(14602.1 -11648.496)"/><path class="g" d="M-6691.553-4907.9l-25.689,31.872,49.234-9.375-33.241-10.146" transform="translate(14403.023 -11657.705)"/></g></g></g></svg>
