<svg xmlns="http://www.w3.org/2000/svg" xmlns:xlink="http://www.w3.org/1999/xlink" width="256" height="256" viewBox="0 0 256 256"><defs><linearGradient id="linear-gradient" x1=".5" x2=".5" y1="4.774" y2="-3.581" gradientUnits="objectBoundingBox"><stop offset="0" stop-color="#08021e"/><stop offset="1" stop-color="#1f0777"/></linearGradient><linearGradient id="linear-gradient-3" x1=".5" x2=".5" y1="1.988" y2="-6.367" xlink:href="#linear-gradient"/><linearGradient id="linear-gradient-5" x1=".5" x2=".5" y1="1.004" y2="-.458" xlink:href="#linear-gradient"/><style>.cls-1{fill:url(#linear-gradient)}.cls-2{fill:url(#linear-gradient-3)}.cls-4{fill:#00d1ff}.cls-5{fill:#fff}</style></defs><g id="Group_30020" data-name="Group 30020" transform="translate(4912 19822)"><g id="Group_30019" data-name="Group 30019" transform="translate(-4912 -19822)"><g id="Group_30018" data-name="Group 30018"><path id="Path_10400" d="M318.535 81c-12.945 0-24.082 5.126-33.578 15.694L261.184 125.8h42.867l7.961-9.689.039-.043a11.99 11.99 0 019.289-4.289h44.613A128.165 128.165 0 00345.758 81z" class="cls-1" data-name="Path 10400" transform="translate(-121.887 -37.8)"/><path id="Path_10401" d="M67.2 111.778a12 12 0 019.291 4.289l.041.047 7.913 9.686h18.428l12.2-14.893-11.5-14.042C94.073 86.17 82.991 81 70.182 81H42.573a128.136 128.136 0 00-20.2 30.778z" class="cls-1" data-name="Path 10401" transform="translate(-10.443 -37.8)"/><path id="Path_10402" d="M312.508 324.813l-.078-.082-7.969-9.731h-42.824l23.719 28.941c9.379 10.684 20.453 15.859 33.391 15.859h27.223a128.238 128.238 0 0020.277-30.957h-44.7a12 12 0 01-9.039-4.03z" class="cls-2" data-name="Path 10402" transform="translate(-122.098 -147)"/><path id="Path_10403" d="M69.935 359.8c12.936 0 24.072-5.176 33.574-15.867L127.223 315H84.246l-7.822 9.551-.081.086a12.33 12.33 0 01-9.212 4.2H22.22A128.128 128.128 0 0042.5 359.8z" class="cls-2" data-name="Path 10403" transform="translate(-10.369 -147)"/><path id="Path_10404" fill="url(#linear-gradient-5)" d="M160.409 199.357l-28.756-35.091h52.478l9.018 11.01a8.288 8.288 0 006.3 2.836h46.362a128.357 128.357 0 00-.077-100.4h-46.281a8.271 8.271 0 00-6.479 3.012l-9.044 11.01h-52.5l28.806-35.267q15.232-17 36.415-17h23.79a127.99 127.99 0 00-184.879 0h24.177q21.007 0 36.241 17.176l13.481 16.466L94.2 91.733H72.234l-8.994-11.01a8.272 8.272 0 00-6.479-3.012h-46.5a128.358 128.358 0 00-.079 100.4h46.58a8.608 8.608 0 006.479-3.012l8.868-10.828h52.631l-28.76 35.086q-15.232 17.178-36.415 17.176h-24a127.99 127.99 0 00184.879 0h-23.79q-21.188 0-36.245-17.176z" data-name="Path 10404"/><path id="Path_10405" d="M275.234 91l-28.807 35.268h52.5l9.045-11.01a8.27 8.27 0 016.479-3.012h46.285q-.806-1.884-1.674-3.733h-44.609a12 12 0 00-9.291 4.289l-.037.043-7.961 9.689H254.3l23.77-29.106c9.5-10.568 20.633-15.694 33.578-15.694h27.221q-1.679-1.9-3.43-3.733h-23.791Q290.467 74 275.234 91z" class="cls-4" data-name="Path 10405" transform="translate(-115 -34.533)"/><path id="Path_10406" d="M311.844 356.535c-12.936 0-24.01-5.176-33.393-15.859l-23.717-28.941h42.824l7.969 9.73.078.082a12 12 0 009.043 4.031h44.693q.861-1.852 1.668-3.73h-46.361a8.291 8.291 0 01-6.3-2.836L299.326 308h-52.478l28.752 35.09q15.056 17.18 36.24 17.18h23.791q1.755-1.834 3.43-3.734z" class="cls-4" data-name="Path 10406" transform="translate(-115.195 -143.734)"/><path id="Path_10407" d="M72.22 115.257l8.994 11.01h21.966l15.261-18.625-13.481-16.466Q89.728 74 68.719 74H44.54q-1.754 1.83-3.43 3.733h27.609c12.808 0 23.89 5.17 33.4 15.865l11.5 14.042-12.2 14.893H82.985l-7.913-9.686-.041-.047a12 12 0 00-9.291-4.289H20.914a126.25 126.25 0 00-1.672 3.733h46.5a8.273 8.273 0 016.478 3.013z" class="cls-4" data-name="Path 10407" transform="translate(-8.979 -34.533)"/><path id="Path_10408" d="M104.89 343.09L133.65 308H81.018l-8.868 10.828a8.606 8.606 0 01-6.479 3.012H19.093c.535 1.258 1.094 2.5 1.668 3.734h44.911a12.33 12.33 0 009.212-4.2l.081-.086 7.822-9.551h42.977l-23.714 28.934c-9.5 10.691-20.638 15.867-33.574 15.867H41.04q1.681 1.9 3.43 3.734h24q21.189-.002 36.42-17.182z" class="cls-4" data-name="Path 10408" transform="translate(-8.91 -143.734)"/></g><path id="Path_10409" d="M110.938 225.043a8.958 8.958 0 002.2 6.451q2.253 2.306 6.6 2.3a8.542 8.542 0 006.4-2.355 8.647 8.647 0 002.355-6.4V206.3h13.106v20.326a16.286 16.286 0 01-2.56 9.164 16 16 0 01-7.424 5.99 30.169 30.169 0 01-11.879 2.1 30.164 30.164 0 01-11.878-2.1 15.837 15.837 0 01-10.035-15.309V206.3h13.107z" class="cls-5" data-name="Path 10409" transform="translate(-45.654 -96.275)"/><path id="Path_10410" d="M217.055 242.809a42.891 42.891 0 01-13.465-2.1 26.052 26.052 0 01-9.729-5.375l8.447-7.373a24.2 24.2 0 006.965 4.25 22.817 22.817 0 008.549 1.639q7.989 0 7.988-2.92a1.56 1.56 0 00-.871-1.484 8.249 8.249 0 00-3.123-.768l-10.853-1.278q-7.017-.873-10.395-3.584-3.328-2.766-3.328-7.988a9.255 9.255 0 012.355-6.348 15 15 0 016.963-4.045A36.733 36.733 0 01217.516 204a47.045 47.045 0 0111.623 1.381 28.156 28.156 0 019.471 4.148l-7.219 7.68a17.3 17.3 0 00-6.246-3.227 27.919 27.919 0 00-8.346-1.229 14.234 14.234 0 00-4.967.666q-1.687.615-1.689 1.844a1.679 1.679 0 00.973 1.586 12.536 12.536 0 003.738.82l9.369.922a32.509 32.509 0 018.5 1.842 9.42 9.42 0 014.709 3.482 10.223 10.223 0 011.486 5.734q0 6.3-5.787 9.729-5.731 3.432-16.076 3.431z" class="cls-5" data-name="Path 10410" transform="translate(-90.469 -95.199)"/><path id="Path_10411" d="M324.16 206.3a30.012 30.012 0 0111.676 2.047 16.223 16.223 0 017.527 5.99 16.876 16.876 0 012.609 9.523 17.521 17.521 0 01-2.766 9.779 18.645 18.645 0 01-7.781 6.656 26.941 26.941 0 01-11.57 2.355h-24.117V206.3zm-2.46 27.856a10.426 10.426 0 007.629-2.713 9.689 9.689 0 002.816-7.322 8.7 8.7 0 00-2.766-6.859 10.545 10.545 0 00-7.371-2.51h-9.164v19.4z" class="cls-5" data-name="Path 10411" transform="translate(-139.879 -96.275)"/></g></g></svg>